<svg version="1.1" xmlns="http://www.w3.org/2000/svg" xmlns:xlink="http://www.w3.org/1999/xlink" width="1080" height="1599" viewBox="-416.40972,-619.84914,1080,1599"><defs><clipPath id="clip-1"><rect x="-416.40972" y="-619.84914" width="1080" height="1599" id="clip-1" fill="none"/></clipPath></defs><g data-paper-data="{&quot;layerid&quot;:&quot;document&quot;,&quot;name&quot;:&quot;document&quot;,&quot;stage&quot;:false,&quot;vgx&quot;:{&quot;signed&quot;:true,&quot;selected&quot;:false,&quot;unsigned&quot;:false,&quot;contained&quot;:false,&quot;visible&quot;:true,&quot;id&quot;:&quot;0qx5xucpv_1714254113384112&quot;,&quot;changeset&quot;:&quot;at21grdc6_1714254113384113&quot;,&quot;staticid&quot;:&quot;f04mjr43x_1714254113384114&quot;,&quot;name&quot;:&quot;document&quot;,&quot;altname&quot;:&quot;&quot;,&quot;owner&quot;:null,&quot;layer&quot;:true,&quot;class&quot;:&quot;item&quot;,&quot;type&quot;:&quot;default&quot;,&quot;ui&quot;:false,&quot;actor&quot;:false,&quot;props&quot;:{},&quot;locked&quot;:false,&quot;strokeScaling&quot;:true,&quot;container&quot;:false,&quot;layerid&quot;:&quot;document&quot;}}" id="document" fill="#ffffff" fill-rule="nonzero" stroke="#000000" stroke-width="0.3" stroke-linecap="butt" stroke-linejoin="miter" stroke-miterlimit="10" stroke-dasharray="" stroke-dashoffset="0" font-family="none" font-weight="none" font-size="none" text-anchor="none" style="mix-blend-mode: normal"><rect x="-153.5" y="33.21429" transform="scale(1,1.4)" width="700" height="500" data-paper-data="{&quot;vgx&quot;:{&quot;signed&quot;:true,&quot;selected&quot;:false,&quot;unsigned&quot;:false,&quot;contained&quot;:false,&quot;visible&quot;:true,&quot;id&quot;:&quot;93gzl4w4l_1714254113455234&quot;,&quot;changeset&quot;:&quot;43xpmq7hd_1714254113455235&quot;,&quot;staticid&quot;:&quot;d7cw8tgbz_1714254113455236&quot;,&quot;name&quot;:&quot;Shape&quot;,&quot;altname&quot;:&quot;&quot;,&quot;owner&quot;:null,&quot;layer&quot;:false,&quot;class&quot;:&quot;document&quot;,&quot;type&quot;:&quot;document&quot;,&quot;ui&quot;:false,&quot;actor&quot;:true,&quot;props&quot;:{},&quot;locked&quot;:false,&quot;strokeScaling&quot;:true,&quot;container&quot;:false},&quot;v_data&quot;:null}" id="Shape 1" vector-effect="non-scaling-stroke"/></g><g fill="none" fill-rule="nonzero" stroke="none" stroke-width="1" stroke-linecap="butt" stroke-linejoin="miter" stroke-miterlimit="10" stroke-dasharray="" stroke-dashoffset="0" font-family="none" font-weight="none" font-size="none" text-anchor="none" style="mix-blend-mode: normal"><g><g data-paper-data="{&quot;layerid&quot;:&quot;stage&quot;,&quot;name&quot;:&quot;stage&quot;,&quot;stage&quot;:false,&quot;vgx&quot;:{&quot;signed&quot;:true,&quot;selected&quot;:false,&quot;unsigned&quot;:false,&quot;contained&quot;:false,&quot;visible&quot;:true,&quot;id&quot;:&quot;k75ctrdgt_1714254113385115&quot;,&quot;changeset&quot;:&quot;cmm2o2fb3_1714254113385116&quot;,&quot;staticid&quot;:&quot;rui3ll2pz_1714254113385117&quot;,&quot;name&quot;:&quot;stage&quot;,&quot;altname&quot;:&quot;&quot;,&quot;owner&quot;:null,&quot;layer&quot;:true,&quot;class&quot;:&quot;item&quot;,&quot;type&quot;:&quot;default&quot;,&quot;ui&quot;:false,&quot;actor&quot;:false,&quot;props&quot;:{},&quot;locked&quot;:false,&quot;strokeScaling&quot;:true,&quot;container&quot;:false,&quot;layerid&quot;:&quot;stage&quot;}}" id="stage"><g id="Layer3 1" fill="none" font-family="sans-serif" font-weight="normal" font-size="12" text-anchor="start"/><g id="layer1 1"><g clip-path="url(#clip-1)" id="Group 1"><g id="Group 1" fill="#ffffff"><g id="Group 1"><path d="M195.80736,151.04673c-0.03603,0 -0.07204,0.00905 -0.1045,0.0271l-90.27702,50.20661l0.00134,0.00079h-0.00448c-0.06366,0.03695 -0.10672,0.10555 -0.10746,0.18439l-0.38385,41.64726c-0.00053,0.05745 0.02195,0.1127 0.06235,0.15346h-0.00095c0.0221,0.02258 0.04914,0.04034 0.07937,0.05144h-0.00447l79.4114,45.8486c0.03327,0.0192 0.07044,0.0288 0.10761,0.0288c0.03716,0 0.07436,-0.0096 0.1076,-0.0288c0.06659,-0.03847 0.10761,-0.1095 0.10761,-0.1864v0.00004l0.25045,-51.24184v-0.001v-0.001c0,-0.07976 -0.04415,-0.15295 -0.11465,-0.19024l-38.11331,-20.14356h0.00003c-0.4111,-0.21734 -0.67151,-0.6416 -0.67941,-1.10626c-0.00782,-0.46521 0.23804,-0.89744 0.64154,-1.12847l48.5045,-27.77677c0.19597,-0.1123 0.41514,-0.16867 0.6339,-0.16867c0.2111,0 0.4224,0.05243 0.6135,0.15723v-0.00006l151.6061,83.1665c0.0323,0.0177 0.06793,0.02655 0.1035,0.02655c0.038,0 0.0759,-0.01001 0.10963,-0.03005c0.06543,-0.03874 0.10557,-0.1091 0.10557,-0.18516v-0.00098v-0.00076l-0.13114,-35.3998c-0.00031,-0.07826 -0.04306,-0.15016 -0.11156,-0.1878l-152.30946,-83.69453c-0.03229,-0.01777 -0.06799,-0.02662 -0.10374,-0.02662z" id="Path 1"/></g><g id="Group 1"><path d="M209.9891,235.49648c-0.01764,0 -0.03528,0.00484 -0.05084,0.01437c-0.0296,0.01813 -0.04736,0.05059 -0.04663,0.08533l0.74313,34.01684l0.0508,0.0835l139.26295,75.96566c0.01459,0.008 0.0307,0.012 0.04675,0.012c0.0172,0 0.03443,-0.0047 0.04975,-0.0137c0.0296,-0.0176 0.04775,-0.0494 0.04775,-0.0838v-0.001l-0.0001,-0.0033l-1.1733,-35.0693l-0.05117,-0.0826l-138.83273,-74.91226c-0.01444,-0.00784 -0.0304,-0.01174 -0.04636,-0.01174z" id="Path 1"/></g><g id="Group 1"><path d="M200.23031,450.44338c0.03601,0 0.07205,-0.0091 0.1045,-0.0271l90.27705,-50.2067l-0.00136,-0.0009h0.00446c0.06366,-0.0368 0.10675,-0.1054 0.1075,-0.1843l0.38377,-41.6472c0.00049,-0.0575 -0.02197,-0.1128 -0.06237,-0.1536h0.00097c-0.02207,-0.0224 -0.04914,-0.0402 -0.07937,-0.0514h0.0045l-79.4114,-45.8485c-0.03326,-0.0192 -0.07043,-0.0288 -0.1076,-0.0288c-0.0372,0 -0.07435,0.0096 -0.1076,0.0288c-0.0666,0.0384 -0.1076,0.1094 -0.1076,0.1863v0l-0.25044,51.2418v0.0011v0.001c0,0.0797 0.04414,0.1528 0.11464,0.1902l38.11326,20.1435h-0.00006c0.41114,0.2173 0.6715,0.6417 0.67945,1.1062c0.00781,0.4654 -0.23805,0.8975 -0.64155,1.1286l-48.50445,27.7767c-0.19598,0.1123 -0.41515,0.1687 -0.63391,0.1687c-0.21114,0 -0.42244,-0.0525 -0.61354,-0.1572v0l-151.60607,-83.1665c-0.03228,-0.0176 -0.06793,-0.0265 -0.10351,-0.0265c-0.03797,0 -0.07587,0.01 -0.10962,0.03c-0.06543,0.0387 -0.1056,0.1092 -0.1056,0.1852v0.001v0.0007l0.13117,35.3999c0.00031,0.0781 0.04303,0.1502 0.11158,0.1878l152.30945,83.6945c0.0323,0.0178 0.068,0.0267 0.10375,0.0267z" id="Path 1"/></g><g id="Group 1"><path d="M186.04856,365.99348c0.0176,0 0.03527,-0.0047 0.05083,-0.0142c0.0296,-0.0182 0.04737,-0.0507 0.04663,-0.0855l-0.7431,-34.0168l-0.05086,-0.0835l-139.26292,-75.9656c-0.01458,-0.00795 -0.0307,-0.012 -0.04675,-0.012c-0.01723,0 -0.03443,0.00466 -0.04975,0.0137c-0.0296,0.0176 -0.04773,0.0494 -0.04773,0.08385v0.00098l0.00005,0.00327l1.17335,35.06936l0.05115,0.08254l138.8327,74.9122c0.01447,0.0078 0.03046,0.0117 0.0464,0.0117z" id="Path 1"/></g></g></g></g><g id="Layer2 1" fill="#ffffff" font-family="Robota-NonCommercial" font-weight="normal" font-size="101" text-anchor="middle"><text x="197.88507" y="616.06149" id="PointText 1">CODE net</text></g></g></g></g></svg>